<svg width="295" height="72" viewBox="0 0 295 72" fill="none" xmlns="http://www.w3.org/2000/svg">
<path d="M295 46.5652V0H38.1247L0 25.4348V72H256.875L295 46.5652Z" fill="white"/>
<path d="M43.416 59V20.472H40.952V16.328H42.184C42.7813 16.328 43.2107 16.1787 43.472 15.88C43.7333 15.544 43.864 15.0027 43.864 14.256V12.912H47.616V59H43.416ZM51.5798 20.248C51.5798 17.672 52.1771 15.7307 53.3718 14.424C54.5664 13.08 56.4518 12.408 59.0278 12.408C61.6038 12.408 63.4891 13.08 64.6838 14.424C65.8784 15.7307 66.4758 17.672 66.4758 20.248V51.664C66.4758 54.24 65.8784 56.2 64.6838 57.544C63.4891 58.8507 61.6038 59.504 59.0278 59.504C56.4518 59.504 54.5664 58.8507 53.3718 57.544C52.1771 56.2 51.5798 54.24 51.5798 51.664V20.248ZM62.2758 20.192C62.2758 17.8027 61.1931 16.608 59.0278 16.608C56.8998 16.608 55.8358 17.8027 55.8358 20.192V51.776C55.8358 54.1653 56.8998 55.36 59.0278 55.36C61.1931 55.36 62.2758 54.1653 62.2758 51.776V20.192ZM77.5563 20.248C77.5563 17.672 78.1536 15.7307 79.3483 14.424C80.543 13.08 82.4283 12.408 85.0043 12.408C87.5803 12.408 89.4656 13.08 90.6603 14.424C91.855 15.7307 92.4523 17.672 92.4523 20.248V51.664C92.4523 54.24 91.855 56.2 90.6603 57.544C89.4656 58.8507 87.5803 59.504 85.0043 59.504C82.4283 59.504 80.543 58.8507 79.3483 57.544C78.1536 56.2 77.5563 54.24 77.5563 51.664V20.248ZM88.2523 20.192C88.2523 17.8027 87.1696 16.608 85.0043 16.608C82.8763 16.608 81.8123 17.8027 81.8123 20.192V51.776C81.8123 54.1653 82.8763 55.36 85.0043 55.36C87.1696 55.36 88.2523 54.1653 88.2523 51.776V20.192ZM95.9313 20.248C95.9313 17.672 96.5286 15.7307 97.7233 14.424C98.918 13.08 100.803 12.408 103.379 12.408C105.955 12.408 107.841 13.08 109.035 14.424C110.23 15.7307 110.827 17.672 110.827 20.248V51.664C110.827 54.24 110.23 56.2 109.035 57.544C107.841 58.8507 105.955 59.504 103.379 59.504C100.803 59.504 98.918 58.8507 97.7233 57.544C96.5286 56.2 95.9313 54.24 95.9313 51.664V20.248ZM106.627 20.192C106.627 17.8027 105.545 16.608 103.379 16.608C101.251 16.608 100.187 17.8027 100.187 20.192V51.776C100.187 54.1653 101.251 55.36 103.379 55.36C105.545 55.36 106.627 54.1653 106.627 51.776V20.192ZM114.306 20.248C114.306 17.672 114.904 15.7307 116.098 14.424C117.293 13.08 119.178 12.408 121.754 12.408C124.33 12.408 126.216 13.08 127.41 14.424C128.605 15.7307 129.202 17.672 129.202 20.248V51.664C129.202 54.24 128.605 56.2 127.41 57.544C126.216 58.8507 124.33 59.504 121.754 59.504C119.178 59.504 117.293 58.8507 116.098 57.544C114.904 56.2 114.306 54.24 114.306 51.664V20.248ZM125.002 20.192C125.002 17.8027 123.92 16.608 121.754 16.608C119.626 16.608 118.562 17.8027 118.562 20.192V51.776C118.562 54.1653 119.626 55.36 121.754 55.36C123.92 55.36 125.002 54.1653 125.002 51.776V20.192Z" fill="#212529"/>
<path d="M144.128 46.12V37.272H136.288V34.136H144.128V25.4H147.208V34.136H155.104V37.272H147.208V46.12H144.128Z" fill="#212529"/>
<path d="M175.28 32.198C174.312 32.198 173.505 32.0147 172.86 31.648C172.215 31.2813 171.731 30.7533 171.408 30.064C171.085 29.3747 170.924 28.5607 170.924 27.622V27.028H173.256C173.256 27.1307 173.256 27.2407 173.256 27.358C173.256 27.4607 173.263 27.556 173.278 27.644C173.307 28.4067 173.454 29.03 173.718 29.514C173.982 29.998 174.503 30.24 175.28 30.24C175.852 30.24 176.285 30.108 176.578 29.844C176.871 29.5653 177.069 29.184 177.172 28.7C177.275 28.2013 177.326 27.6293 177.326 26.984C177.326 26.06 177.121 25.29 176.71 24.674C176.299 24.058 175.522 23.7133 174.378 23.64C174.319 23.6253 174.246 23.618 174.158 23.618C174.085 23.618 174.004 23.618 173.916 23.618C173.843 23.618 173.769 23.618 173.696 23.618V21.726C173.755 21.726 173.821 21.726 173.894 21.726C173.982 21.726 174.063 21.726 174.136 21.726C174.224 21.7113 174.29 21.704 174.334 21.704C175.463 21.6307 176.241 21.3373 176.666 20.824C177.106 20.296 177.326 19.5627 177.326 18.624C177.326 17.8173 177.165 17.172 176.842 16.688C176.534 16.1893 175.977 15.94 175.17 15.94C174.393 15.94 173.835 16.1893 173.498 16.688C173.161 17.172 172.963 17.81 172.904 18.602C172.904 18.69 172.904 18.7853 172.904 18.888C172.904 18.976 172.904 19.0713 172.904 19.174H170.55V18.58C170.55 17.6267 170.726 16.8127 171.078 16.138C171.43 15.4633 171.943 14.9427 172.618 14.576C173.293 14.2093 174.114 14.026 175.082 14.026C176.065 14.026 176.893 14.2167 177.568 14.598C178.257 14.9647 178.778 15.4927 179.13 16.182C179.497 16.8567 179.68 17.6707 179.68 18.624C179.68 19.6947 179.445 20.5673 178.976 21.242C178.521 21.9167 177.905 22.364 177.128 22.584C177.656 22.76 178.111 23.0387 178.492 23.42C178.873 23.8013 179.167 24.2927 179.372 24.894C179.577 25.4807 179.68 26.1773 179.68 26.984C179.68 28.04 179.533 28.964 179.24 29.756C178.947 30.5333 178.477 31.1347 177.832 31.56C177.187 31.9853 176.336 32.198 175.28 32.198ZM183.672 32.176C183.174 32.176 182.734 32.0367 182.352 31.758C181.971 31.4647 181.67 31.098 181.45 30.658C181.23 30.2033 181.12 29.7267 181.12 29.228C181.12 28.436 181.252 27.7687 181.516 27.226C181.78 26.6833 182.14 26.2287 182.594 25.862C183.064 25.4807 183.599 25.1507 184.2 24.872C184.816 24.5933 185.462 24.322 186.136 24.058V23.156C186.136 22.6427 186.107 22.2173 186.048 21.88C185.99 21.5427 185.865 21.2933 185.674 21.132C185.498 20.956 185.227 20.868 184.86 20.868C184.538 20.868 184.274 20.9413 184.068 21.088C183.878 21.2347 183.738 21.4473 183.65 21.726C183.562 21.99 183.518 22.3053 183.518 22.672V23.31L181.186 23.222C181.216 21.814 181.538 20.78 182.154 20.12C182.77 19.4453 183.724 19.108 185.014 19.108C186.276 19.108 187.17 19.4527 187.698 20.142C188.226 20.8313 188.49 21.8287 188.49 23.134V28.942C188.49 29.338 188.498 29.7193 188.512 30.086C188.542 30.4527 188.571 30.7973 188.6 31.12C188.644 31.428 188.681 31.7213 188.71 32H186.554C186.51 31.7653 186.452 31.472 186.378 31.12C186.32 30.7533 186.276 30.4233 186.246 30.13C186.1 30.6287 185.814 31.098 185.388 31.538C184.978 31.9633 184.406 32.176 183.672 32.176ZM184.596 30.152C184.831 30.152 185.051 30.086 185.256 29.954C185.462 29.822 185.645 29.6753 185.806 29.514C185.968 29.338 186.078 29.1987 186.136 29.096V25.488C185.77 25.6933 185.425 25.8987 185.102 26.104C184.78 26.3093 184.494 26.5293 184.244 26.764C184.01 26.984 183.819 27.2407 183.672 27.534C183.54 27.8127 183.474 28.1353 183.474 28.502C183.474 29.0153 183.57 29.4187 183.76 29.712C183.951 30.0053 184.23 30.152 184.596 30.152ZM190.76 32V19.284H198.152V32H195.798V21.066H193.114V32H190.76ZM205.31 32V26.962C205.031 26.9913 204.752 27.0207 204.474 27.05C204.195 27.0793 203.909 27.094 203.616 27.094C202.985 27.094 202.406 27.006 201.878 26.83C201.35 26.654 200.932 26.3387 200.624 25.884C200.316 25.4147 200.162 24.762 200.162 23.926V19.284H202.516V23.948C202.516 24.4027 202.618 24.762 202.824 25.026C203.044 25.29 203.491 25.422 204.166 25.422C204.342 25.422 204.525 25.4147 204.716 25.4C204.906 25.3707 205.104 25.3413 205.31 25.312V19.284H207.664V32H205.31ZM211.967 32.176C211.469 32.176 211.029 32.0367 210.647 31.758C210.266 31.4647 209.965 31.098 209.745 30.658C209.525 30.2033 209.415 29.7267 209.415 29.228C209.415 28.436 209.547 27.7687 209.811 27.226C210.075 26.6833 210.435 26.2287 210.889 25.862C211.359 25.4807 211.894 25.1507 212.495 24.872C213.111 24.5933 213.757 24.322 214.431 24.058V23.156C214.431 22.6427 214.402 22.2173 214.343 21.88C214.285 21.5427 214.16 21.2933 213.969 21.132C213.793 20.956 213.522 20.868 213.155 20.868C212.833 20.868 212.569 20.9413 212.363 21.088C212.173 21.2347 212.033 21.4473 211.945 21.726C211.857 21.99 211.813 22.3053 211.813 22.672V23.31L209.481 23.222C209.511 21.814 209.833 20.78 210.449 20.12C211.065 19.4453 212.019 19.108 213.309 19.108C214.571 19.108 215.465 19.4527 215.993 20.142C216.521 20.8313 216.785 21.8287 216.785 23.134V28.942C216.785 29.338 216.793 29.7193 216.807 30.086C216.837 30.4527 216.866 30.7973 216.895 31.12C216.939 31.428 216.976 31.7213 217.005 32H214.849C214.805 31.7653 214.747 31.472 214.673 31.12C214.615 30.7533 214.571 30.4233 214.541 30.13C214.395 30.6287 214.109 31.098 213.683 31.538C213.273 31.9633 212.701 32.176 211.967 32.176ZM212.891 30.152C213.126 30.152 213.346 30.086 213.551 29.954C213.757 29.822 213.94 29.6753 214.101 29.514C214.263 29.338 214.373 29.1987 214.431 29.096V25.488C214.065 25.6933 213.72 25.8987 213.397 26.104C213.075 26.3093 212.789 26.5293 212.539 26.764C212.305 26.984 212.114 27.2407 211.967 27.534C211.835 27.8127 211.769 28.1353 211.769 28.502C211.769 29.0153 211.865 29.4187 212.055 29.712C212.246 30.0053 212.525 30.152 212.891 30.152ZM222.531 32.176C221.49 32.176 220.698 31.9707 220.155 31.56C219.627 31.1347 219.268 30.5407 219.077 29.778C218.901 29.0153 218.813 28.128 218.813 27.116V24.19C218.813 23.1193 218.909 22.21 219.099 21.462C219.29 20.6993 219.649 20.12 220.177 19.724C220.72 19.3133 221.505 19.108 222.531 19.108C223.455 19.108 224.167 19.262 224.665 19.57C225.179 19.8633 225.531 20.3107 225.721 20.912C225.912 21.4987 226.007 22.232 226.007 23.112V23.86H223.873V23.09C223.873 22.5327 223.837 22.0927 223.763 21.77C223.69 21.4473 223.558 21.2127 223.367 21.066C223.177 20.9193 222.905 20.846 222.553 20.846C222.172 20.846 221.879 20.934 221.673 21.11C221.468 21.286 221.329 21.5867 221.255 22.012C221.197 22.4227 221.167 22.9873 221.167 23.706V27.71C221.167 28.7953 221.27 29.5213 221.475 29.888C221.681 30.2547 222.047 30.438 222.575 30.438C222.971 30.438 223.257 30.35 223.433 30.174C223.624 29.9833 223.741 29.7193 223.785 29.382C223.844 29.0447 223.873 28.6633 223.873 28.238V27.204H226.007V28.084C226.007 28.9347 225.905 29.668 225.699 30.284C225.509 30.9 225.157 31.3693 224.643 31.692C224.145 32.0147 223.441 32.176 222.531 32.176ZM229.53 32V21.044H227.154V19.284H234.282V21.044H231.884V32H229.53ZM239.226 32.176C238.228 32.176 237.458 31.9853 236.916 31.604C236.373 31.208 235.992 30.636 235.772 29.888C235.566 29.1253 235.464 28.194 235.464 27.094V24.19C235.464 23.0607 235.574 22.122 235.794 21.374C236.014 20.626 236.395 20.0613 236.938 19.68C237.495 19.2987 238.258 19.108 239.226 19.108C240.296 19.108 241.081 19.328 241.58 19.768C242.093 20.208 242.43 20.846 242.592 21.682C242.753 22.5033 242.834 23.4933 242.834 24.652V25.686H237.818V28.238C237.818 28.7513 237.862 29.1693 237.95 29.492C238.052 29.8147 238.206 30.0567 238.412 30.218C238.632 30.3647 238.91 30.438 239.248 30.438C239.6 30.438 239.864 30.3573 240.04 30.196C240.23 30.02 240.355 29.778 240.414 29.47C240.487 29.1473 240.524 28.7733 240.524 28.348V27.578H242.812V28.062C242.812 29.338 242.54 30.3427 241.998 31.076C241.455 31.8093 240.531 32.176 239.226 32.176ZM237.818 24.41H240.524V23.266C240.524 22.738 240.494 22.298 240.436 21.946C240.377 21.5793 240.252 21.308 240.062 21.132C239.886 20.9413 239.6 20.846 239.204 20.846C238.822 20.846 238.529 20.934 238.324 21.11C238.133 21.286 238.001 21.5867 237.928 22.012C237.854 22.4227 237.818 22.9947 237.818 23.728V24.41ZM244.965 32V19.284H246.945V27.842L250.773 19.284H252.621V32H250.685V23.376L246.879 32H244.965ZM248.859 17.898C247.803 17.898 247.055 17.612 246.615 17.04C246.19 16.468 245.977 15.7567 245.977 14.906H247.341C247.356 15.434 247.473 15.8447 247.693 16.138C247.928 16.4167 248.317 16.556 248.859 16.556C249.417 16.556 249.805 16.4093 250.025 16.116C250.26 15.8227 250.377 15.4193 250.377 14.906H251.763C251.763 15.7567 251.543 16.468 251.103 17.04C250.678 17.612 249.93 17.898 248.859 17.898ZM171.188 56V43.284H174.752C175.617 43.284 176.292 43.4307 176.776 43.724C177.275 44.0027 177.627 44.3767 177.832 44.846C178.052 45.3007 178.169 45.792 178.184 46.32C178.199 46.9507 178.096 47.5153 177.876 48.014C177.656 48.5127 177.201 48.8647 176.512 49.07C177.04 49.1727 177.443 49.3927 177.722 49.73C178.015 50.0527 178.213 50.4413 178.316 50.896C178.433 51.3507 178.492 51.82 178.492 52.304C178.492 53.0373 178.382 53.6827 178.162 54.24C177.957 54.7973 177.59 55.23 177.062 55.538C176.549 55.846 175.815 56 174.862 56H171.188ZM173.498 54.218H174.334C174.671 54.218 174.979 54.174 175.258 54.086C175.537 53.9833 175.757 53.7853 175.918 53.492C176.094 53.1987 176.182 52.7733 176.182 52.216C176.182 51.556 176.101 51.0793 175.94 50.786C175.793 50.478 175.588 50.2873 175.324 50.214C175.075 50.1407 174.781 50.104 174.444 50.104H173.498V54.218ZM173.498 48.41H174.642C175.097 48.41 175.456 48.278 175.72 48.014C175.984 47.75 176.116 47.2807 176.116 46.606C176.116 46.0047 175.962 45.5867 175.654 45.352C175.346 45.1173 174.928 45 174.4 45H173.498V48.41ZM185.346 56V43.284H187.7V48.63H190.714V43.284H193.068V56H190.714V50.346H187.7V56H185.346ZM197.358 56.176C196.859 56.176 196.419 56.0367 196.038 55.758C195.657 55.4647 195.356 55.098 195.136 54.658C194.916 54.2033 194.806 53.7267 194.806 53.228C194.806 52.436 194.938 51.7687 195.202 51.226C195.466 50.6833 195.825 50.2287 196.28 49.862C196.749 49.4807 197.285 49.1507 197.886 48.872C198.502 48.5933 199.147 48.322 199.822 48.058V47.156C199.822 46.6427 199.793 46.2173 199.734 45.88C199.675 45.5427 199.551 45.2933 199.36 45.132C199.184 44.956 198.913 44.868 198.546 44.868C198.223 44.868 197.959 44.9413 197.754 45.088C197.563 45.2347 197.424 45.4473 197.336 45.726C197.248 45.99 197.204 46.3053 197.204 46.672V47.31L194.872 47.222C194.901 45.814 195.224 44.78 195.84 44.12C196.456 43.4453 197.409 43.108 198.7 43.108C199.961 43.108 200.856 43.4527 201.384 44.142C201.912 44.8313 202.176 45.8287 202.176 47.134V52.942C202.176 53.338 202.183 53.7193 202.198 54.086C202.227 54.4527 202.257 54.7973 202.286 55.12C202.33 55.428 202.367 55.7213 202.396 56H200.24C200.196 55.7653 200.137 55.472 200.064 55.12C200.005 54.7533 199.961 54.4233 199.932 54.13C199.785 54.6287 199.499 55.098 199.074 55.538C198.663 55.9633 198.091 56.176 197.358 56.176ZM198.282 54.152C198.517 54.152 198.737 54.086 198.942 53.954C199.147 53.822 199.331 53.6753 199.492 53.514C199.653 53.338 199.763 53.1987 199.822 53.096V49.488C199.455 49.6933 199.111 49.8987 198.788 50.104C198.465 50.3093 198.179 50.5293 197.93 50.764C197.695 50.984 197.505 51.2407 197.358 51.534C197.226 51.8127 197.16 52.1353 197.16 52.502C197.16 53.0153 197.255 53.4187 197.446 53.712C197.637 54.0053 197.915 54.152 198.282 54.152ZM203.632 56.11V54.328C204.072 54.328 204.416 54.24 204.666 54.064C204.93 53.888 205.128 53.5947 205.26 53.184C205.406 52.7587 205.516 52.194 205.59 51.49C205.663 50.7713 205.729 49.8767 205.788 48.806L206.074 43.284H212.74V56H210.386V45.066H208.142L207.944 48.806C207.87 50.258 207.76 51.4607 207.614 52.414C207.482 53.3673 207.269 54.1153 206.976 54.658C206.682 55.186 206.286 55.56 205.788 55.78C205.304 56 204.673 56.11 203.896 56.11H203.632ZM215.124 56V43.284H217.104V51.842L220.932 43.284H222.78V56H220.844V47.376L217.038 56H215.124ZM229.952 56V50.962C229.674 50.9913 229.395 51.0207 229.116 51.05C228.838 51.0793 228.552 51.094 228.258 51.094C227.628 51.094 227.048 51.006 226.52 50.83C225.992 50.654 225.574 50.3387 225.266 49.884C224.958 49.4147 224.804 48.762 224.804 47.926V43.284H227.158V47.948C227.158 48.4027 227.261 48.762 227.466 49.026C227.686 49.29 228.134 49.422 228.808 49.422C228.984 49.422 229.168 49.4147 229.358 49.4C229.549 49.3707 229.747 49.3413 229.952 49.312V43.284H232.306V56H229.952ZM234.696 56V43.284H236.676V51.842L240.504 43.284H242.352V56H240.416V47.376L236.61 56H234.696ZM244.751 56V43.284H246.731V51.842L250.559 43.284H252.407V56H250.471V47.376L246.665 56H244.751Z" fill="#212529"/>
</svg>
