<svg width="295" height="72" viewBox="0 0 295 72" fill="none" xmlns="http://www.w3.org/2000/svg">
<path d="M295 46.5652V0H38.1247L0 25.4348V72H256.875L295 46.5652Z" fill="white"/>
<path d="M43.416 59V20.472H40.952V16.328H42.184C42.7813 16.328 43.2107 16.1787 43.472 15.88C43.7333 15.544 43.864 15.0027 43.864 14.256V12.912H47.616V59H43.416ZM58.1733 37.44V34.136H67.0213V37.44H58.1733ZM86.9228 41.136C86.9228 39.904 86.7174 38.9893 86.3068 38.392C85.9334 37.7947 85.1121 37.496 83.8428 37.496H81.6588V33.52H84.0668C85.2241 33.52 85.9708 33.2213 86.3068 32.624C86.6801 31.9893 86.8668 31.0747 86.8668 29.88V20.36C86.8668 19.0907 86.6614 18.176 86.2508 17.616C85.8401 17.0187 85.0561 16.72 83.8988 16.72C82.7788 16.72 82.0134 17.0187 81.6028 17.616C81.1921 18.176 80.9868 19.0907 80.9868 20.36V28.48H76.7868V20.36C76.7868 17.56 77.3468 15.544 78.4668 14.312C79.6241 13.0427 81.4348 12.408 83.8988 12.408C86.3628 12.408 88.1548 13.0427 89.2748 14.312C90.3948 15.544 90.9548 17.5787 90.9548 20.416V30.328C90.9548 31.8213 90.6748 32.96 90.1148 33.744C89.5548 34.528 88.7334 35.1253 87.6508 35.536C88.6961 35.7973 89.5174 36.32 90.1148 37.104C90.7494 37.8507 91.0668 39.064 91.0668 40.744V51.664C91.0668 54.016 90.4881 55.92 89.3308 57.376C88.1734 58.7947 86.3628 59.504 83.8988 59.504C81.4348 59.504 79.6054 58.7947 78.4108 57.376C77.2534 55.9573 76.6748 54.072 76.6748 51.72V42.648H80.9868V51.72C80.9868 52.84 81.2108 53.7173 81.6588 54.352C82.1068 54.9867 82.8534 55.304 83.8988 55.304C84.9814 55.304 85.7468 54.9867 86.1948 54.352C86.6801 53.7173 86.9228 52.8213 86.9228 51.664V41.136Z" fill="#212529"/>
<path d="M114.64 55.08H117.048V64.544H114.136V59H100.584V64.544H97.616V55.08H98.176C98.7733 55.08 99.2773 54.912 99.688 54.576C100.136 54.24 100.528 53.6427 100.864 52.784C101.051 52.2987 101.219 51.7573 101.368 51.16C101.517 50.5253 101.667 49.704 101.816 48.696C101.965 47.688 102.096 46.4373 102.208 44.944C102.357 43.4133 102.525 41.4907 102.712 39.176L103.776 24.336H114.64V55.08ZM106.968 28.256L106.016 40.24C105.904 41.5093 105.773 42.8907 105.624 44.384C105.512 45.8773 105.363 47.3333 105.176 48.752C104.989 50.1333 104.747 51.4027 104.448 52.56C104.187 53.68 103.869 54.52 103.496 55.08H110.776V28.256H106.968ZM119.744 59V24.336H123.608V38.728H128.816V24.336H132.68V59H128.816V42.648H123.608V59H119.744ZM135.797 59L139.157 42.592C138.149 42.1813 137.402 41.584 136.917 40.8C136.432 39.9787 136.189 38.8773 136.189 37.496V30.552C136.189 28.2747 136.768 26.6693 137.925 25.736C139.082 24.8027 140.874 24.336 143.301 24.336H149.573V59H145.709V43.432H143.749C143.562 43.432 143.394 43.432 143.245 43.432C143.096 43.432 142.965 43.4133 142.853 43.376L139.773 59H135.797ZM140.053 36.488C140.053 37.6827 140.258 38.5973 140.669 39.232C141.117 39.8293 141.994 40.128 143.301 40.128H145.709V28.312H143.301C142.218 28.312 141.397 28.536 140.837 28.984C140.314 29.432 140.053 30.1973 140.053 31.28V36.488Z" fill="#212529"/>
<path d="M178.242 35.234V30.218H179.056C179.305 30.0127 179.547 29.7633 179.782 29.47C180.031 29.1767 180.259 28.7953 180.464 28.326C180.684 27.842 180.882 27.226 181.058 26.478C181.234 25.7153 181.388 24.762 181.52 23.618C181.667 22.474 181.777 21.088 181.85 19.46L182.136 14.18H189.594V30.218H191.31V35.234H189.396L189.198 32H180.354L180.156 35.234H178.242ZM181.366 30.218H187.13V16.028H184.248L184.072 20.054C184.013 21.638 183.918 22.9727 183.786 24.058C183.669 25.1287 183.522 26.016 183.346 26.72C183.185 27.4093 182.994 27.974 182.774 28.414C182.569 28.8393 182.341 29.184 182.092 29.448C181.857 29.712 181.615 29.9687 181.366 30.218ZM196.479 32.176C195.54 32.176 194.8 31.9853 194.257 31.604C193.714 31.2227 193.326 30.68 193.091 29.976C192.871 29.272 192.761 28.4433 192.761 27.49V23.794C192.761 22.8407 192.871 22.012 193.091 21.308C193.326 20.604 193.714 20.0613 194.257 19.68C194.8 19.2987 195.54 19.108 196.479 19.108C197.418 19.108 198.151 19.2987 198.679 19.68C199.222 20.0613 199.603 20.604 199.823 21.308C200.058 22.012 200.175 22.8407 200.175 23.794V27.49C200.175 28.4433 200.058 29.272 199.823 29.976C199.603 30.68 199.222 31.2227 198.679 31.604C198.151 31.9853 197.418 32.176 196.479 32.176ZM196.479 30.438C196.934 30.438 197.249 30.306 197.425 30.042C197.616 29.778 197.726 29.4333 197.755 29.008C197.799 28.568 197.821 28.1133 197.821 27.644V23.662C197.821 23.178 197.799 22.7233 197.755 22.298C197.726 21.8727 197.616 21.528 197.425 21.264C197.249 20.9853 196.934 20.846 196.479 20.846C196.024 20.846 195.702 20.9853 195.511 21.264C195.32 21.528 195.203 21.8727 195.159 22.298C195.13 22.7233 195.115 23.178 195.115 23.662V27.644C195.115 28.1133 195.13 28.568 195.159 29.008C195.203 29.4333 195.32 29.778 195.511 30.042C195.702 30.306 196.024 30.438 196.479 30.438ZM205.803 32.176C204.761 32.176 203.969 31.9707 203.427 31.56C202.899 31.1347 202.539 30.5407 202.349 29.778C202.173 29.0153 202.085 28.128 202.085 27.116V24.19C202.085 23.1193 202.18 22.21 202.371 21.462C202.561 20.6993 202.921 20.12 203.449 19.724C203.991 19.3133 204.776 19.108 205.803 19.108C206.727 19.108 207.438 19.262 207.937 19.57C208.45 19.8633 208.802 20.3107 208.993 20.912C209.183 21.4987 209.279 22.232 209.279 23.112V23.86H207.145V23.09C207.145 22.5327 207.108 22.0927 207.035 21.77C206.961 21.4473 206.829 21.2127 206.639 21.066C206.448 20.9193 206.177 20.846 205.825 20.846C205.443 20.846 205.15 20.934 204.945 21.11C204.739 21.286 204.6 21.5867 204.527 22.012C204.468 22.4227 204.439 22.9873 204.439 23.706V27.71C204.439 28.7953 204.541 29.5213 204.747 29.888C204.952 30.2547 205.319 30.438 205.847 30.438C206.243 30.438 206.529 30.35 206.705 30.174C206.895 29.9833 207.013 29.7193 207.057 29.382C207.115 29.0447 207.145 28.6633 207.145 28.238V27.204H209.279V28.084C209.279 28.9347 209.176 29.668 208.971 30.284C208.78 30.9 208.428 31.3693 207.915 31.692C207.416 32.0147 206.712 32.176 205.803 32.176ZM212.802 32V21.044H210.426V19.284H217.554V21.044H215.156V32H212.802ZM220.891 32.176C220.392 32.176 219.952 32.0367 219.571 31.758C219.19 31.4647 218.889 31.098 218.669 30.658C218.449 30.2033 218.339 29.7267 218.339 29.228C218.339 28.436 218.471 27.7687 218.735 27.226C218.999 26.6833 219.358 26.2287 219.813 25.862C220.282 25.4807 220.818 25.1507 221.419 24.872C222.035 24.5933 222.68 24.322 223.355 24.058V23.156C223.355 22.6427 223.326 22.2173 223.267 21.88C223.208 21.5427 223.084 21.2933 222.893 21.132C222.717 20.956 222.446 20.868 222.079 20.868C221.756 20.868 221.492 20.9413 221.287 21.088C221.096 21.2347 220.957 21.4473 220.869 21.726C220.781 21.99 220.737 22.3053 220.737 22.672V23.31L218.405 23.222C218.434 21.814 218.757 20.78 219.373 20.12C219.989 19.4453 220.942 19.108 222.233 19.108C223.494 19.108 224.389 19.4527 224.917 20.142C225.445 20.8313 225.709 21.8287 225.709 23.134V28.942C225.709 29.338 225.716 29.7193 225.731 30.086C225.76 30.4527 225.79 30.7973 225.819 31.12C225.863 31.428 225.9 31.7213 225.929 32H223.773C223.729 31.7653 223.67 31.472 223.597 31.12C223.538 30.7533 223.494 30.4233 223.465 30.13C223.318 30.6287 223.032 31.098 222.607 31.538C222.196 31.9633 221.624 32.176 220.891 32.176ZM221.815 30.152C222.05 30.152 222.27 30.086 222.475 29.954C222.68 29.822 222.864 29.6753 223.025 29.514C223.186 29.338 223.296 29.1987 223.355 29.096V25.488C222.988 25.6933 222.644 25.8987 222.321 26.104C221.998 26.3093 221.712 26.5293 221.463 26.764C221.228 26.984 221.038 27.2407 220.891 27.534C220.759 27.8127 220.693 28.1353 220.693 28.502C220.693 29.0153 220.788 29.4187 220.979 29.712C221.17 30.0053 221.448 30.152 221.815 30.152ZM227.979 32V19.284H231.543C232.408 19.284 233.083 19.4307 233.567 19.724C234.066 20.0027 234.418 20.3767 234.623 20.846C234.843 21.3007 234.96 21.792 234.975 22.32C234.99 22.9507 234.887 23.5153 234.667 24.014C234.447 24.5127 233.992 24.8647 233.303 25.07C233.831 25.1727 234.234 25.3927 234.513 25.73C234.806 26.0527 235.004 26.4413 235.107 26.896C235.224 27.3507 235.283 27.82 235.283 28.304C235.283 29.0373 235.173 29.6827 234.953 30.24C234.748 30.7973 234.381 31.23 233.853 31.538C233.34 31.846 232.606 32 231.653 32H227.979ZM230.289 30.218H231.125C231.462 30.218 231.77 30.174 232.049 30.086C232.328 29.9833 232.548 29.7853 232.709 29.492C232.885 29.1987 232.973 28.7733 232.973 28.216C232.973 27.556 232.892 27.0793 232.731 26.786C232.584 26.478 232.379 26.2873 232.115 26.214C231.866 26.1407 231.572 26.104 231.235 26.104H230.289V30.218ZM230.289 24.41H231.433C231.888 24.41 232.247 24.278 232.511 24.014C232.775 23.75 232.907 23.2807 232.907 22.606C232.907 22.0047 232.753 21.5867 232.445 21.352C232.137 21.1173 231.719 21 231.191 21H230.289V24.41ZM237.11 32V19.284H239.464V24.652H240.124L242.522 19.284H244.942L242.28 25.444L244.986 32H242.522L240.124 26.06H239.464V32H237.11ZM248.155 32.176C247.656 32.176 247.216 32.0367 246.835 31.758C246.453 31.4647 246.153 31.098 245.933 30.658C245.713 30.2033 245.603 29.7267 245.603 29.228C245.603 28.436 245.735 27.7687 245.999 27.226C246.263 26.6833 246.622 26.2287 247.077 25.862C247.546 25.4807 248.081 25.1507 248.683 24.872C249.299 24.5933 249.944 24.322 250.619 24.058V23.156C250.619 22.6427 250.589 22.2173 250.531 21.88C250.472 21.5427 250.347 21.2933 250.157 21.132C249.981 20.956 249.709 20.868 249.343 20.868C249.02 20.868 248.756 20.9413 248.551 21.088C248.36 21.2347 248.221 21.4473 248.133 21.726C248.045 21.99 248.001 22.3053 248.001 22.672V23.31L245.669 23.222C245.698 21.814 246.021 20.78 246.637 20.12C247.253 19.4453 248.206 19.108 249.497 19.108C250.758 19.108 251.653 19.4527 252.181 20.142C252.709 20.8313 252.973 21.8287 252.973 23.134V28.942C252.973 29.338 252.98 29.7193 252.995 30.086C253.024 30.4527 253.053 30.7973 253.083 31.12C253.127 31.428 253.163 31.7213 253.193 32H251.037C250.993 31.7653 250.934 31.472 250.861 31.12C250.802 30.7533 250.758 30.4233 250.729 30.13C250.582 30.6287 250.296 31.098 249.871 31.538C249.46 31.9633 248.888 32.176 248.155 32.176ZM249.079 30.152C249.313 30.152 249.533 30.086 249.739 29.954C249.944 29.822 250.127 29.6753 250.289 29.514C250.45 29.338 250.56 29.1987 250.619 29.096V25.488C250.252 25.6933 249.907 25.8987 249.585 26.104C249.262 26.3093 248.976 26.5293 248.727 26.764C248.492 26.984 248.301 27.2407 248.155 27.534C248.023 27.8127 247.957 28.1353 247.957 28.502C247.957 29.0153 248.052 29.4187 248.243 29.712C248.433 30.0053 248.712 30.152 249.079 30.152ZM179.188 56V43.284H186.58V56H184.226V45.066H181.542V56H179.188ZM192.461 56.176C191.523 56.176 190.782 55.9853 190.239 55.604C189.697 55.2227 189.308 54.68 189.073 53.976C188.853 53.272 188.743 52.4433 188.743 51.49V47.794C188.743 46.8407 188.853 46.012 189.073 45.308C189.308 44.604 189.697 44.0613 190.239 43.68C190.782 43.2987 191.523 43.108 192.461 43.108C193.4 43.108 194.133 43.2987 194.661 43.68C195.204 44.0613 195.585 44.604 195.805 45.308C196.04 46.012 196.157 46.8407 196.157 47.794V51.49C196.157 52.4433 196.04 53.272 195.805 53.976C195.585 54.68 195.204 55.2227 194.661 55.604C194.133 55.9853 193.4 56.176 192.461 56.176ZM192.461 54.438C192.916 54.438 193.231 54.306 193.407 54.042C193.598 53.778 193.708 53.4333 193.737 53.008C193.781 52.568 193.803 52.1133 193.803 51.644V47.662C193.803 47.178 193.781 46.7233 193.737 46.298C193.708 45.8727 193.598 45.528 193.407 45.264C193.231 44.9853 192.916 44.846 192.461 44.846C192.007 44.846 191.684 44.9853 191.493 45.264C191.303 45.528 191.185 45.8727 191.141 46.298C191.112 46.7233 191.097 47.178 191.097 47.662V51.644C191.097 52.1133 191.112 52.568 191.141 53.008C191.185 53.4333 191.303 53.778 191.493 54.042C191.684 54.306 192.007 54.438 192.461 54.438ZM212.4 56.198C211.256 56.198 210.354 55.9633 209.694 55.494C209.034 55.01 208.565 54.328 208.286 53.448C208.022 52.568 207.89 51.5413 207.89 50.368V47.838H205.866V56H203.534V38.18H205.866V45.946H207.89V43.724C207.89 42.536 208.022 41.5167 208.286 40.666C208.565 39.8153 209.034 39.1627 209.694 38.708C210.354 38.2533 211.256 38.026 212.4 38.026C213.544 38.026 214.439 38.2607 215.084 38.73C215.744 39.1847 216.214 39.8373 216.492 40.688C216.771 41.5387 216.91 42.5507 216.91 43.724V50.368C216.91 51.5267 216.771 52.546 216.492 53.426C216.214 54.306 215.744 54.988 215.084 55.472C214.439 55.956 213.544 56.198 212.4 56.198ZM212.4 54.24C213.031 54.24 213.508 54.108 213.83 53.844C214.153 53.5653 214.373 53.184 214.49 52.7C214.608 52.2013 214.666 51.622 214.666 50.962V43.152C214.666 42.492 214.608 41.9273 214.49 41.458C214.373 40.974 214.153 40.6073 213.83 40.358C213.508 40.094 213.031 39.962 212.4 39.962C211.77 39.962 211.286 40.094 210.948 40.358C210.626 40.6073 210.406 40.974 210.288 41.458C210.171 41.9273 210.112 42.492 210.112 43.152V50.962C210.112 51.622 210.171 52.2013 210.288 52.7C210.406 53.184 210.626 53.5653 210.948 53.844C211.286 54.108 211.77 54.24 212.4 54.24ZM223.967 56.792V53.8C223.894 53.8147 223.776 53.8293 223.615 53.844C223.454 53.8587 223.314 53.866 223.197 53.866C222.302 53.866 221.54 53.7267 220.909 53.448C220.293 53.1693 219.824 52.6853 219.501 51.996C219.178 51.3067 219.017 50.3607 219.017 49.158V44.714C219.017 43.526 219.171 42.5873 219.479 41.898C219.787 41.2087 220.227 40.7173 220.799 40.424C221.386 40.116 222.082 39.962 222.889 39.962C223.094 39.962 223.3 39.9693 223.505 39.984C223.71 39.984 223.864 39.9913 223.967 40.006V36.574H226.453V40.006C226.6 39.9913 226.783 39.984 227.003 39.984C227.223 39.9693 227.414 39.962 227.575 39.962C228.411 39.962 229.115 40.116 229.687 40.424C230.274 40.7173 230.714 41.216 231.007 41.92C231.315 42.6093 231.469 43.5407 231.469 44.714V49.158C231.469 50.346 231.315 51.2847 231.007 51.974C230.699 52.6633 230.274 53.1547 229.731 53.448C229.188 53.7267 228.572 53.866 227.883 53.866C227.648 53.866 227.414 53.8587 227.179 53.844C226.944 53.8293 226.702 53.8147 226.453 53.8V56.792H223.967ZM223.351 52.37C223.468 52.37 223.586 52.37 223.703 52.37C223.82 52.3553 223.908 52.3407 223.967 52.326V41.502C223.835 41.4873 223.703 41.48 223.571 41.48C223.439 41.4653 223.314 41.458 223.197 41.458C222.713 41.458 222.332 41.5533 222.053 41.744C221.774 41.9347 221.576 42.2647 221.459 42.734C221.342 43.2033 221.283 43.8633 221.283 44.714V49.158C221.283 50.0087 221.334 50.6687 221.437 51.138C221.54 51.6073 221.738 51.93 222.031 52.106C222.324 52.282 222.764 52.37 223.351 52.37ZM227.267 52.37C227.795 52.37 228.198 52.282 228.477 52.106C228.756 51.93 228.946 51.6073 229.049 51.138C229.152 50.6687 229.203 50.0087 229.203 49.158V44.714C229.203 43.8633 229.152 43.2033 229.049 42.734C228.946 42.2647 228.756 41.9347 228.477 41.744C228.198 41.5533 227.78 41.458 227.223 41.458C227.091 41.458 226.959 41.4653 226.827 41.48C226.695 41.48 226.57 41.4873 226.453 41.502V52.326C226.556 52.3407 226.68 52.3553 226.827 52.37C226.974 52.37 227.12 52.37 227.267 52.37ZM238.467 56.198C237.265 56.198 236.304 55.9633 235.585 55.494C234.867 55.0247 234.353 54.3573 234.045 53.492C233.737 52.612 233.583 51.5853 233.583 50.412V43.658C233.583 42.4847 233.737 41.48 234.045 40.644C234.368 39.7933 234.881 39.148 235.585 38.708C236.304 38.2533 237.265 38.026 238.467 38.026C239.67 38.026 240.623 38.2533 241.327 38.708C242.031 39.1627 242.537 39.808 242.845 40.644C243.168 41.48 243.329 42.4847 243.329 43.658V50.434C243.329 51.5927 243.168 52.6047 242.845 53.47C242.537 54.3353 242.031 55.01 241.327 55.494C240.623 55.9633 239.67 56.198 238.467 56.198ZM238.467 54.24C239.127 54.24 239.626 54.108 239.963 53.844C240.301 53.5653 240.528 53.184 240.645 52.7C240.763 52.2013 240.821 51.622 240.821 50.962V43.152C240.821 42.492 240.763 41.9273 240.645 41.458C240.528 40.974 240.301 40.6073 239.963 40.358C239.626 40.094 239.127 39.962 238.467 39.962C237.807 39.962 237.301 40.094 236.949 40.358C236.612 40.6073 236.385 40.974 236.267 41.458C236.15 41.9273 236.091 42.492 236.091 43.152V50.962C236.091 51.622 236.15 52.2013 236.267 52.7C236.385 53.184 236.612 53.5653 236.949 53.844C237.301 54.108 237.807 54.24 238.467 54.24Z" fill="#212529"/>
</svg>
