<svg width="295" height="72" viewBox="0 0 295 72" fill="none" xmlns="http://www.w3.org/2000/svg">
<path d="M295 46.5652V0H38.1247L0 25.4348V72H256.875L295 46.5652Z" fill="white"/>
<path d="M43.416 59V20.472H40.952V16.328H42.184C42.7813 16.328 43.2107 16.1787 43.472 15.88C43.7333 15.544 43.864 15.0027 43.864 14.256V12.912H47.616V59H43.416ZM61.7718 36.824C61.7718 34.6587 60.7451 33.576 58.6918 33.576C56.8998 33.576 55.7798 34.5093 55.3318 36.376L51.5798 36.208L52.1398 12.912H65.5798V17.224H56.0038L55.4998 32.064C55.9104 31.4293 56.4891 30.888 57.2357 30.44C57.9824 29.992 59.0091 29.768 60.3158 29.768C62.1078 29.768 63.4704 30.3093 64.4038 31.392C65.3744 32.4747 65.8598 34.304 65.8598 36.88V51.776C65.8598 54.3893 65.2998 56.3307 64.1798 57.6C63.0598 58.8693 61.2678 59.504 58.8038 59.504C54.0251 59.504 51.6358 56.928 51.6358 51.776V42.088H55.7798V51.776C55.7798 54.128 56.7878 55.304 58.8038 55.304C60.7824 55.304 61.7718 54.1093 61.7718 51.72V36.824ZM69.2985 20.248C69.2985 17.672 69.8958 15.7307 71.0905 14.424C72.2852 13.08 74.1705 12.408 76.7465 12.408C79.3225 12.408 81.2078 13.08 82.4025 14.424C83.5972 15.7307 84.1945 17.672 84.1945 20.248V51.664C84.1945 54.24 83.5972 56.2 82.4025 57.544C81.2078 58.8507 79.3225 59.504 76.7465 59.504C74.1705 59.504 72.2852 58.8507 71.0905 57.544C69.8958 56.2 69.2985 54.24 69.2985 51.664V20.248ZM79.9945 20.192C79.9945 17.8027 78.9118 16.608 76.7465 16.608C74.6185 16.608 73.5545 17.8027 73.5545 20.192V51.776C73.5545 54.1653 74.6185 55.36 76.7465 55.36C78.9118 55.36 79.9945 54.1653 79.9945 51.776V20.192Z" fill="#212529"/>
<path d="M99.128 46.12V37.272H91.288V34.136H99.128V25.4H102.208V34.136H110.104V37.272H102.208V46.12H99.128Z" fill="#212529"/>
<path d="M156.386 32V14.18H166.198V32H163.712V15.962H158.872V32H156.386ZM172.276 32.176C171.337 32.176 170.597 31.9853 170.054 31.604C169.511 31.2227 169.123 30.68 168.888 29.976C168.668 29.272 168.558 28.4433 168.558 27.49V23.794C168.558 22.8407 168.668 22.012 168.888 21.308C169.123 20.604 169.511 20.0613 170.054 19.68C170.597 19.2987 171.337 19.108 172.276 19.108C173.215 19.108 173.948 19.2987 174.476 19.68C175.019 20.0613 175.4 20.604 175.62 21.308C175.855 22.012 175.972 22.8407 175.972 23.794V27.49C175.972 28.4433 175.855 29.272 175.62 29.976C175.4 30.68 175.019 31.2227 174.476 31.604C173.948 31.9853 173.215 32.176 172.276 32.176ZM172.276 30.438C172.731 30.438 173.046 30.306 173.222 30.042C173.413 29.778 173.523 29.4333 173.552 29.008C173.596 28.568 173.618 28.1133 173.618 27.644V23.662C173.618 23.178 173.596 22.7233 173.552 22.298C173.523 21.8727 173.413 21.528 173.222 21.264C173.046 20.9853 172.731 20.846 172.276 20.846C171.821 20.846 171.499 20.9853 171.308 21.264C171.117 21.528 171 21.8727 170.956 22.298C170.927 22.7233 170.912 23.178 170.912 23.662V27.644C170.912 28.1133 170.927 28.568 170.956 29.008C171 29.4333 171.117 29.778 171.308 30.042C171.499 30.306 171.821 30.438 172.276 30.438ZM181.6 32.176C180.558 32.176 179.766 31.9707 179.224 31.56C178.696 31.1347 178.336 30.5407 178.146 29.778C177.97 29.0153 177.882 28.128 177.882 27.116V24.19C177.882 23.1193 177.977 22.21 178.168 21.462C178.358 20.6993 178.718 20.12 179.246 19.724C179.788 19.3133 180.573 19.108 181.6 19.108C182.524 19.108 183.235 19.262 183.734 19.57C184.247 19.8633 184.599 20.3107 184.79 20.912C184.98 21.4987 185.076 22.232 185.076 23.112V23.86H182.942V23.09C182.942 22.5327 182.905 22.0927 182.832 21.77C182.758 21.4473 182.626 21.2127 182.436 21.066C182.245 20.9193 181.974 20.846 181.622 20.846C181.24 20.846 180.947 20.934 180.742 21.11C180.536 21.286 180.397 21.5867 180.324 22.012C180.265 22.4227 180.236 22.9873 180.236 23.706V27.71C180.236 28.7953 180.338 29.5213 180.544 29.888C180.749 30.2547 181.116 30.438 181.644 30.438C182.04 30.438 182.326 30.35 182.502 30.174C182.692 29.9833 182.81 29.7193 182.854 29.382C182.912 29.0447 182.942 28.6633 182.942 28.238V27.204H185.076V28.084C185.076 28.9347 184.973 29.668 184.768 30.284C184.577 30.9 184.225 31.3693 183.712 31.692C183.213 32.0147 182.509 32.176 181.6 32.176ZM188.598 32V21.044H186.222V19.284H193.35V21.044H190.952V32H188.598ZM198.122 32.176C197.183 32.176 196.442 31.9853 195.9 31.604C195.357 31.2227 194.968 30.68 194.734 29.976C194.514 29.272 194.404 28.4433 194.404 27.49V23.794C194.404 22.8407 194.514 22.012 194.734 21.308C194.968 20.604 195.357 20.0613 195.9 19.68C196.442 19.2987 197.183 19.108 198.122 19.108C199.06 19.108 199.794 19.2987 200.322 19.68C200.864 20.0613 201.246 20.604 201.466 21.308C201.7 22.012 201.818 22.8407 201.818 23.794V27.49C201.818 28.4433 201.7 29.272 201.466 29.976C201.246 30.68 200.864 31.2227 200.322 31.604C199.794 31.9853 199.06 32.176 198.122 32.176ZM198.122 30.438C198.576 30.438 198.892 30.306 199.068 30.042C199.258 29.778 199.368 29.4333 199.398 29.008C199.442 28.568 199.464 28.1133 199.464 27.644V23.662C199.464 23.178 199.442 22.7233 199.398 22.298C199.368 21.8727 199.258 21.528 199.068 21.264C198.892 20.9853 198.576 20.846 198.122 20.846C197.667 20.846 197.344 20.9853 197.154 21.264C196.963 21.528 196.846 21.8727 196.802 22.298C196.772 22.7233 196.758 23.178 196.758 23.662V27.644C196.758 28.1133 196.772 28.568 196.802 29.008C196.846 29.4333 196.963 29.778 197.154 30.042C197.344 30.306 197.667 30.438 198.122 30.438ZM203.001 32L205.399 26.61C204.989 26.4487 204.651 26.2067 204.387 25.884C204.138 25.5613 203.955 25.1653 203.837 24.696C203.72 24.2267 203.661 23.6987 203.661 23.112C203.661 22.4373 203.749 21.858 203.925 21.374C204.101 20.89 204.38 20.494 204.761 20.186C205.143 19.878 205.649 19.6507 206.279 19.504C206.91 19.3573 207.687 19.284 208.611 19.284H211.075V32H208.743V26.984C208.509 26.984 208.311 26.984 208.149 26.984C207.988 26.9693 207.812 26.9547 207.621 26.94L205.531 32H203.001ZM208.479 25.62C208.509 25.62 208.553 25.62 208.611 25.62C208.685 25.62 208.729 25.62 208.743 25.62V20.626C208.729 20.626 208.685 20.626 208.611 20.626C208.553 20.626 208.516 20.626 208.501 20.626C207.812 20.626 207.262 20.714 206.851 20.89C206.455 21.0513 206.177 21.3153 206.015 21.682C205.854 22.034 205.773 22.5107 205.773 23.112C205.773 23.948 205.957 24.5713 206.323 24.982C206.705 25.3927 207.423 25.6053 208.479 25.62ZM213.465 32V19.284H215.819V24.63H218.833V19.284H221.187V32H218.833V26.346H215.819V32H213.465ZM223.563 32V19.284H225.917V24.63H228.931V19.284H231.285V32H228.931V26.346H225.917V32H223.563ZM233.661 32V19.284H236.015V24.542C236.044 24.542 236.081 24.542 236.125 24.542C236.183 24.542 236.235 24.542 236.279 24.542C236.323 24.542 236.359 24.542 236.389 24.542C237.254 24.5567 237.987 24.6227 238.589 24.74C239.205 24.8427 239.703 25.0333 240.085 25.312C240.466 25.576 240.745 25.95 240.921 26.434C241.097 26.9033 241.185 27.512 241.185 28.26C241.185 28.9493 241.097 29.536 240.921 30.02C240.745 30.4893 240.459 30.8707 240.063 31.164C239.667 31.4573 239.146 31.67 238.501 31.802C237.855 31.934 237.071 32 236.147 32H233.661ZM236.015 30.614H236.147C236.895 30.614 237.481 30.548 237.907 30.416C238.332 30.284 238.633 30.0493 238.809 29.712C238.985 29.36 239.073 28.8687 239.073 28.238C239.073 27.666 238.992 27.2187 238.831 26.896C238.684 26.5587 238.405 26.3167 237.995 26.17C237.599 26.0087 237.019 25.928 236.257 25.928C236.242 25.928 236.205 25.928 236.147 25.928C236.088 25.928 236.044 25.928 236.015 25.928V30.614ZM242.637 32V19.284H244.991V32H242.637ZM246.378 32L249.238 25.312L246.444 19.284H248.688L250.558 23.31L252.208 19.284H254.518L251.614 25.598L254.562 32H252.318L250.316 27.688L248.6 32H246.378ZM156.188 56V43.284H158.542V48.652H159.202L161.6 43.284H164.02L161.358 49.444L164.064 56H161.6L159.202 50.06H158.542V56H156.188ZM164.505 56.11V54.328C164.945 54.328 165.29 54.24 165.539 54.064C165.803 53.888 166.001 53.5947 166.133 53.184C166.28 52.7587 166.39 52.194 166.463 51.49C166.536 50.7713 166.602 49.8767 166.661 48.806L166.947 43.284H173.613V56H171.259V45.066H169.015L168.817 48.806C168.744 50.258 168.634 51.4607 168.487 52.414C168.355 53.3673 168.142 54.1153 167.849 54.658C167.556 55.186 167.16 55.56 166.661 55.78C166.177 56 165.546 56.11 164.769 56.11H164.505ZM175.997 56V43.284H177.977V51.842L181.805 43.284H183.653V56H181.717V47.376L177.911 56H175.997ZM189.571 56.176C188.574 56.176 187.804 55.9853 187.261 55.604C186.719 55.208 186.337 54.636 186.117 53.888C185.912 53.1253 185.809 52.194 185.809 51.094V48.19C185.809 47.0607 185.919 46.122 186.139 45.374C186.359 44.626 186.741 44.0613 187.283 43.68C187.841 43.2987 188.603 43.108 189.571 43.108C190.642 43.108 191.427 43.328 191.925 43.768C192.439 44.208 192.776 44.846 192.937 45.682C193.099 46.5033 193.179 47.4933 193.179 48.652V49.686H188.163V52.238C188.163 52.7513 188.207 53.1693 188.295 53.492C188.398 53.8147 188.552 54.0567 188.757 54.218C188.977 54.3647 189.256 54.438 189.593 54.438C189.945 54.438 190.209 54.3573 190.385 54.196C190.576 54.02 190.701 53.778 190.759 53.47C190.833 53.1473 190.869 52.7733 190.869 52.348V51.578H193.157V52.062C193.157 53.338 192.886 54.3427 192.343 55.076C191.801 55.8093 190.877 56.176 189.571 56.176ZM188.163 48.41H190.869V47.266C190.869 46.738 190.84 46.298 190.781 45.946C190.723 45.5793 190.598 45.308 190.407 45.132C190.231 44.9413 189.945 44.846 189.549 44.846C189.168 44.846 188.875 44.934 188.669 45.11C188.479 45.286 188.347 45.5867 188.273 46.012C188.2 46.4227 188.163 46.9947 188.163 47.728V48.41ZM195.311 56V43.284H197.665V48.63H200.679V43.284H203.033V56H200.679V50.346H197.665V56H195.311ZM206.839 56V45.044H204.463V43.284H211.591V45.044H209.193V56H206.839ZM216.362 56.176C215.423 56.176 214.682 55.9853 214.14 55.604C213.597 55.2227 213.208 54.68 212.974 53.976C212.754 53.272 212.644 52.4433 212.644 51.49V47.794C212.644 46.8407 212.754 46.012 212.974 45.308C213.208 44.604 213.597 44.0613 214.14 43.68C214.682 43.2987 215.423 43.108 216.362 43.108C217.3 43.108 218.034 43.2987 218.562 43.68C219.104 44.0613 219.486 44.604 219.706 45.308C219.94 46.012 220.058 46.8407 220.058 47.794V51.49C220.058 52.4433 219.94 53.272 219.706 53.976C219.486 54.68 219.104 55.2227 218.562 55.604C218.034 55.9853 217.3 56.176 216.362 56.176ZM216.362 54.438C216.816 54.438 217.132 54.306 217.308 54.042C217.498 53.778 217.608 53.4333 217.638 53.008C217.682 52.568 217.704 52.1133 217.704 51.644V47.662C217.704 47.178 217.682 46.7233 217.638 46.298C217.608 45.8727 217.498 45.528 217.308 45.264C217.132 44.9853 216.816 44.846 216.362 44.846C215.907 44.846 215.584 44.9853 215.394 45.264C215.203 45.528 215.086 45.8727 215.042 46.298C215.012 46.7233 214.998 47.178 214.998 47.662V51.644C214.998 52.1133 215.012 52.568 215.042 53.008C215.086 53.4333 215.203 53.778 215.394 54.042C215.584 54.306 215.907 54.438 216.362 54.438ZM222.209 56V43.284H225.773C226.639 43.284 227.313 43.4307 227.797 43.724C228.296 44.0027 228.648 44.3767 228.853 44.846C229.073 45.3007 229.191 45.792 229.205 46.32C229.22 46.9507 229.117 47.5153 228.897 48.014C228.677 48.5127 228.223 48.8647 227.533 49.07C228.061 49.1727 228.465 49.3927 228.743 49.73C229.037 50.0527 229.235 50.4413 229.337 50.896C229.455 51.3507 229.513 51.82 229.513 52.304C229.513 53.0373 229.403 53.6827 229.183 54.24C228.978 54.7973 228.611 55.23 228.083 55.538C227.57 55.846 226.837 56 225.883 56H222.209ZM224.519 54.218H225.355C225.693 54.218 226.001 54.174 226.279 54.086C226.558 53.9833 226.778 53.7853 226.939 53.492C227.115 53.1987 227.203 52.7733 227.203 52.216C227.203 51.556 227.123 51.0793 226.961 50.786C226.815 50.478 226.609 50.2873 226.345 50.214C226.096 50.1407 225.803 50.104 225.465 50.104H224.519V54.218ZM224.519 48.41H225.663C226.118 48.41 226.477 48.278 226.741 48.014C227.005 47.75 227.137 47.2807 227.137 46.606C227.137 46.0047 226.983 45.5867 226.675 45.352C226.367 45.1173 225.949 45 225.421 45H224.519V48.41Z" fill="#212529"/>
</svg>
