<svg width="295" height="72" viewBox="0 0 295 72" fill="none" xmlns="http://www.w3.org/2000/svg">
<path d="M295 46.5652V0H38.1247L0 25.4348V72H256.875L295 46.5652Z" fill="white"/>
<path d="M43.416 59V20.472H40.952V16.328H42.184C42.7813 16.328 43.2107 16.1787 43.472 15.88C43.7333 15.544 43.864 15.0027 43.864 14.256V12.912H47.616V59H43.416ZM61.5478 41.136C61.5478 39.904 61.3424 38.9893 60.9318 38.392C60.5584 37.7947 59.7371 37.496 58.4678 37.496H56.2838V33.52H58.6918C59.8491 33.52 60.5958 33.2213 60.9318 32.624C61.3051 31.9893 61.4918 31.0747 61.4918 29.88V20.36C61.4918 19.0907 61.2864 18.176 60.8758 17.616C60.4651 17.0187 59.6811 16.72 58.5238 16.72C57.4038 16.72 56.6384 17.0187 56.2278 17.616C55.8171 18.176 55.6118 19.0907 55.6118 20.36V28.48H51.4118V20.36C51.4118 17.56 51.9718 15.544 53.0918 14.312C54.2491 13.0427 56.0598 12.408 58.5238 12.408C60.9878 12.408 62.7798 13.0427 63.8998 14.312C65.0198 15.544 65.5798 17.5787 65.5798 20.416V30.328C65.5798 31.8213 65.2998 32.96 64.7398 33.744C64.1798 34.528 63.3584 35.1253 62.2758 35.536C63.3211 35.7973 64.1424 36.32 64.7398 37.104C65.3744 37.8507 65.6918 39.064 65.6918 40.744V51.664C65.6918 54.016 65.1131 55.92 63.9558 57.376C62.7984 58.7947 60.9878 59.504 58.5238 59.504C56.0598 59.504 54.2304 58.7947 53.0358 57.376C51.8784 55.9573 51.2998 54.072 51.2998 51.72V42.648H55.6118V51.72C55.6118 52.84 55.8358 53.7173 56.2838 54.352C56.7318 54.9867 57.4784 55.304 58.5238 55.304C59.6064 55.304 60.3718 54.9867 60.8198 54.352C61.3051 53.7173 61.5478 52.8213 61.5478 51.664V41.136Z" fill="#212529"/>
<path d="M72.56 59V55.08H73.176C73.8107 55.08 74.3333 54.968 74.744 54.744C75.1547 54.4827 75.528 53.904 75.864 53.008C76.0507 52.5227 76.2187 51.9627 76.368 51.328C76.5173 50.656 76.648 49.7973 76.76 48.752C76.9093 47.7067 77.04 46.4187 77.152 44.888C77.3013 43.3573 77.4693 41.472 77.656 39.232L78.776 24.336H89.584V59H85.72V28.312H81.912L81.016 40.184C80.8293 42.424 80.6427 44.384 80.456 46.064C80.3067 47.7067 80.12 49.144 79.896 50.376C79.7093 51.608 79.504 52.6533 79.28 53.512C79.0933 54.3707 78.8693 55.0987 78.608 55.696C78.16 56.7787 77.5627 57.6 76.816 58.16C76.0693 58.72 74.8747 59 73.232 59H72.56ZM101.992 30.888C101.992 28.8347 101.133 27.808 99.4155 27.808C97.8102 27.808 97.0075 28.8347 97.0075 30.888V39.232H101.992V30.888ZM101.992 44.888H105.632V52.504C105.632 57.1707 103.56 59.504 99.4155 59.504C95.4208 59.504 93.4235 57.1707 93.4235 52.504V30.888C93.4235 28.536 93.9275 26.7627 94.9355 25.568C95.9808 24.3733 97.4742 23.776 99.4155 23.776C103.56 23.776 105.632 26.1467 105.632 30.888V42.032H97.0075V52.504C97.0075 54.5573 97.8102 55.584 99.4155 55.584C101.133 55.584 101.992 54.5573 101.992 52.504V44.888ZM111.491 59V28.256H107.291V24.336H119.611V28.256H115.355V59H111.491Z" fill="#212529"/>
<path d="M179.94 32.198C178.737 32.198 177.777 31.9633 177.058 31.494C176.339 31.0247 175.826 30.3573 175.518 29.492C175.21 28.612 175.056 27.5853 175.056 26.412V19.658C175.056 18.4847 175.21 17.48 175.518 16.644C175.841 15.7933 176.354 15.148 177.058 14.708C177.777 14.2533 178.737 14.026 179.94 14.026C181.143 14.026 182.096 14.2533 182.8 14.708C183.504 15.1627 184.01 15.808 184.318 16.644C184.641 17.48 184.802 18.4847 184.802 19.658V26.434C184.802 27.5927 184.641 28.6047 184.318 29.47C184.01 30.3353 183.504 31.01 182.8 31.494C182.096 31.9633 181.143 32.198 179.94 32.198ZM179.94 30.24C180.6 30.24 181.099 30.108 181.436 29.844C181.773 29.5653 182.001 29.184 182.118 28.7C182.235 28.2013 182.294 27.622 182.294 26.962V19.152C182.294 18.492 182.235 17.9273 182.118 17.458C182.001 16.974 181.773 16.6073 181.436 16.358C181.099 16.094 180.6 15.962 179.94 15.962C179.28 15.962 178.774 16.094 178.422 16.358C178.085 16.6073 177.857 16.974 177.74 17.458C177.623 17.9273 177.564 18.492 177.564 19.152V26.962C177.564 27.622 177.623 28.2013 177.74 28.7C177.857 29.184 178.085 29.5653 178.422 29.844C178.774 30.108 179.28 30.24 179.94 30.24ZM187.047 32V19.284H194.439V32H192.085V21.066H189.401V32H187.047ZM196.823 32V19.284H199.177V24.542C199.206 24.542 199.243 24.542 199.287 24.542C199.345 24.542 199.397 24.542 199.441 24.542C199.485 24.542 199.521 24.542 199.551 24.542C200.416 24.5567 201.149 24.6227 201.751 24.74C202.367 24.8427 202.865 25.0333 203.247 25.312C203.628 25.576 203.907 25.95 204.083 26.434C204.259 26.9033 204.347 27.512 204.347 28.26C204.347 28.9493 204.259 29.536 204.083 30.02C203.907 30.4893 203.621 30.8707 203.225 31.164C202.829 31.4573 202.308 31.67 201.663 31.802C201.017 31.934 200.233 32 199.309 32H196.823ZM199.177 30.614H199.309C200.057 30.614 200.643 30.548 201.069 30.416C201.494 30.284 201.795 30.0493 201.971 29.712C202.147 29.36 202.235 28.8687 202.235 28.238C202.235 27.666 202.154 27.2187 201.993 26.896C201.846 26.5587 201.567 26.3167 201.157 26.17C200.761 26.0087 200.181 25.928 199.419 25.928C199.404 25.928 199.367 25.928 199.309 25.928C199.25 25.928 199.206 25.928 199.177 25.928V30.614ZM205.799 32V19.284H208.153V32H205.799ZM211.96 32V21.044H209.584V19.284H216.712V21.044H214.314V32H211.96ZM220.049 32.176C219.551 32.176 219.111 32.0367 218.729 31.758C218.348 31.4647 218.047 31.098 217.827 30.658C217.607 30.2033 217.497 29.7267 217.497 29.228C217.497 28.436 217.629 27.7687 217.893 27.226C218.157 26.6833 218.517 26.2287 218.971 25.862C219.441 25.4807 219.976 25.1507 220.577 24.872C221.193 24.5933 221.839 24.322 222.513 24.058V23.156C222.513 22.6427 222.484 22.2173 222.425 21.88C222.367 21.5427 222.242 21.2933 222.051 21.132C221.875 20.956 221.604 20.868 221.237 20.868C220.915 20.868 220.651 20.9413 220.445 21.088C220.255 21.2347 220.115 21.4473 220.027 21.726C219.939 21.99 219.895 22.3053 219.895 22.672V23.31L217.563 23.222C217.593 21.814 217.915 20.78 218.531 20.12C219.147 19.4453 220.101 19.108 221.391 19.108C222.653 19.108 223.547 19.4527 224.075 20.142C224.603 20.8313 224.867 21.8287 224.867 23.134V28.942C224.867 29.338 224.875 29.7193 224.889 30.086C224.919 30.4527 224.948 30.7973 224.977 31.12C225.021 31.428 225.058 31.7213 225.087 32H222.931C222.887 31.7653 222.829 31.472 222.755 31.12C222.697 30.7533 222.653 30.4233 222.623 30.13C222.477 30.6287 222.191 31.098 221.765 31.538C221.355 31.9633 220.783 32.176 220.049 32.176ZM220.973 30.152C221.208 30.152 221.428 30.086 221.633 29.954C221.839 29.822 222.022 29.6753 222.183 29.514C222.345 29.338 222.455 29.1987 222.513 29.096V25.488C222.147 25.6933 221.802 25.8987 221.479 26.104C221.157 26.3093 220.871 26.5293 220.621 26.764C220.387 26.984 220.196 27.2407 220.049 27.534C219.917 27.8127 219.851 28.1353 219.851 28.502C219.851 29.0153 219.947 29.4187 220.137 29.712C220.328 30.0053 220.607 30.152 220.973 30.152ZM232.165 32V19.284H235.729C236.594 19.284 237.269 19.4307 237.753 19.724C238.251 20.0027 238.603 20.3767 238.809 20.846C239.029 21.3007 239.146 21.792 239.161 22.32C239.175 22.9507 239.073 23.5153 238.853 24.014C238.633 24.5127 238.178 24.8647 237.489 25.07C238.017 25.1727 238.42 25.3927 238.699 25.73C238.992 26.0527 239.19 26.4413 239.293 26.896C239.41 27.3507 239.469 27.82 239.469 28.304C239.469 29.0373 239.359 29.6827 239.139 30.24C238.933 30.7973 238.567 31.23 238.039 31.538C237.525 31.846 236.792 32 235.839 32H232.165ZM234.475 30.218H235.311C235.648 30.218 235.956 30.174 236.235 30.086C236.513 29.9833 236.733 29.7853 236.895 29.492C237.071 29.1987 237.159 28.7733 237.159 28.216C237.159 27.556 237.078 27.0793 236.917 26.786C236.77 26.478 236.565 26.2873 236.301 26.214C236.051 26.1407 235.758 26.104 235.421 26.104H234.475V30.218ZM234.475 24.41H235.619C236.073 24.41 236.433 24.278 236.697 24.014C236.961 23.75 237.093 23.2807 237.093 22.606C237.093 22.0047 236.939 21.5867 236.631 21.352C236.323 21.1173 235.905 21 235.377 21H234.475V24.41ZM175.188 56V43.284H182.58V56H180.226V45.066H177.542V56H175.188ZM188.461 56.176C187.523 56.176 186.782 55.9853 186.239 55.604C185.697 55.2227 185.308 54.68 185.073 53.976C184.853 53.272 184.743 52.4433 184.743 51.49V47.794C184.743 46.8407 184.853 46.012 185.073 45.308C185.308 44.604 185.697 44.0613 186.239 43.68C186.782 43.2987 187.523 43.108 188.461 43.108C189.4 43.108 190.133 43.2987 190.661 43.68C191.204 44.0613 191.585 44.604 191.805 45.308C192.04 46.012 192.157 46.8407 192.157 47.794V51.49C192.157 52.4433 192.04 53.272 191.805 53.976C191.585 54.68 191.204 55.2227 190.661 55.604C190.133 55.9853 189.4 56.176 188.461 56.176ZM188.461 54.438C188.916 54.438 189.231 54.306 189.407 54.042C189.598 53.778 189.708 53.4333 189.737 53.008C189.781 52.568 189.803 52.1133 189.803 51.644V47.662C189.803 47.178 189.781 46.7233 189.737 46.298C189.708 45.8727 189.598 45.528 189.407 45.264C189.231 44.9853 188.916 44.846 188.461 44.846C188.007 44.846 187.684 44.9853 187.493 45.264C187.303 45.528 187.185 45.8727 187.141 46.298C187.112 46.7233 187.097 47.178 187.097 47.662V51.644C187.097 52.1133 187.112 52.568 187.141 53.008C187.185 53.4333 187.303 53.778 187.493 54.042C187.684 54.306 188.007 54.438 188.461 54.438ZM197.785 56.176C196.744 56.176 195.952 55.9707 195.409 55.56C194.881 55.1347 194.522 54.5407 194.331 53.778C194.155 53.0153 194.067 52.128 194.067 51.116V48.19C194.067 47.1193 194.162 46.21 194.353 45.462C194.544 44.6993 194.903 44.12 195.431 43.724C195.974 43.3133 196.758 43.108 197.785 43.108C198.709 43.108 199.42 43.262 199.919 43.57C200.432 43.8633 200.784 44.3107 200.975 44.912C201.166 45.4987 201.261 46.232 201.261 47.112V47.86H199.127V47.09C199.127 46.5327 199.09 46.0927 199.017 45.77C198.944 45.4473 198.812 45.2127 198.621 45.066C198.43 44.9193 198.159 44.846 197.807 44.846C197.426 44.846 197.132 44.934 196.927 45.11C196.722 45.286 196.582 45.5867 196.509 46.012C196.45 46.4227 196.421 46.9873 196.421 47.706V51.71C196.421 52.7953 196.524 53.5213 196.729 53.888C196.934 54.2547 197.301 54.438 197.829 54.438C198.225 54.438 198.511 54.35 198.687 54.174C198.878 53.9833 198.995 53.7193 199.039 53.382C199.098 53.0447 199.127 52.6633 199.127 52.238V51.204H201.261V52.084C201.261 52.9347 201.158 53.668 200.953 54.284C200.762 54.9 200.41 55.3693 199.897 55.692C199.398 56.0147 198.694 56.176 197.785 56.176ZM204.784 56V45.044H202.408V43.284H209.536V45.044H207.138V56H204.784ZM212.873 56.176C212.375 56.176 211.935 56.0367 211.553 55.758C211.172 55.4647 210.871 55.098 210.651 54.658C210.431 54.2033 210.321 53.7267 210.321 53.228C210.321 52.436 210.453 51.7687 210.717 51.226C210.981 50.6833 211.341 50.2287 211.795 49.862C212.265 49.4807 212.8 49.1507 213.401 48.872C214.017 48.5933 214.663 48.322 215.337 48.058V47.156C215.337 46.6427 215.308 46.2173 215.249 45.88C215.191 45.5427 215.066 45.2933 214.875 45.132C214.699 44.956 214.428 44.868 214.061 44.868C213.739 44.868 213.475 44.9413 213.269 45.088C213.079 45.2347 212.939 45.4473 212.851 45.726C212.763 45.99 212.719 46.3053 212.719 46.672V47.31L210.387 47.222C210.417 45.814 210.739 44.78 211.355 44.12C211.971 43.4453 212.925 43.108 214.215 43.108C215.477 43.108 216.371 43.4527 216.899 44.142C217.427 44.8313 217.691 45.8287 217.691 47.134V52.942C217.691 53.338 217.699 53.7193 217.713 54.086C217.743 54.4527 217.772 54.7973 217.801 55.12C217.845 55.428 217.882 55.7213 217.911 56H215.755C215.711 55.7653 215.653 55.472 215.579 55.12C215.521 54.7533 215.477 54.4233 215.447 54.13C215.301 54.6287 215.015 55.098 214.589 55.538C214.179 55.9633 213.607 56.176 212.873 56.176ZM213.797 54.152C214.032 54.152 214.252 54.086 214.457 53.954C214.663 53.822 214.846 53.6753 215.007 53.514C215.169 53.338 215.279 53.1987 215.337 53.096V49.488C214.971 49.6933 214.626 49.8987 214.303 50.104C213.981 50.3093 213.695 50.5293 213.445 50.764C213.211 50.984 213.02 51.2407 212.873 51.534C212.741 51.8127 212.675 52.1353 212.675 52.502C212.675 53.0153 212.771 53.4187 212.961 53.712C213.152 54.0053 213.431 54.152 213.797 54.152ZM219.961 56V43.284H223.525C224.391 43.284 225.065 43.4307 225.549 43.724C226.048 44.0027 226.4 44.3767 226.605 44.846C226.825 45.3007 226.943 45.792 226.957 46.32C226.972 46.9507 226.869 47.5153 226.649 48.014C226.429 48.5127 225.975 48.8647 225.285 49.07C225.813 49.1727 226.217 49.3927 226.495 49.73C226.789 50.0527 226.987 50.4413 227.089 50.896C227.207 51.3507 227.265 51.82 227.265 52.304C227.265 53.0373 227.155 53.6827 226.935 54.24C226.73 54.7973 226.363 55.23 225.835 55.538C225.322 55.846 224.589 56 223.635 56H219.961ZM222.271 54.218H223.107C223.445 54.218 223.753 54.174 224.031 54.086C224.31 53.9833 224.53 53.7853 224.691 53.492C224.867 53.1987 224.955 52.7733 224.955 52.216C224.955 51.556 224.875 51.0793 224.713 50.786C224.567 50.478 224.361 50.2873 224.097 50.214C223.848 50.1407 223.555 50.104 223.217 50.104H222.271V54.218ZM222.271 48.41H223.415C223.87 48.41 224.229 48.278 224.493 48.014C224.757 47.75 224.889 47.2807 224.889 46.606C224.889 46.0047 224.735 45.5867 224.427 45.352C224.119 45.1173 223.701 45 223.173 45H222.271V48.41ZM229.092 56V43.284H231.446V48.652H232.106L234.504 43.284H236.924L234.262 49.444L236.968 56H234.504L232.106 50.06H231.446V56H229.092ZM240.137 56.176C239.638 56.176 239.198 56.0367 238.817 55.758C238.436 55.4647 238.135 55.098 237.915 54.658C237.695 54.2033 237.585 53.7267 237.585 53.228C237.585 52.436 237.717 51.7687 237.981 51.226C238.245 50.6833 238.604 50.2287 239.059 49.862C239.528 49.4807 240.064 49.1507 240.665 48.872C241.281 48.5933 241.926 48.322 242.601 48.058V47.156C242.601 46.6427 242.572 46.2173 242.513 45.88C242.454 45.5427 242.33 45.2933 242.139 45.132C241.963 44.956 241.692 44.868 241.325 44.868C241.002 44.868 240.738 44.9413 240.533 45.088C240.342 45.2347 240.203 45.4473 240.115 45.726C240.027 45.99 239.983 46.3053 239.983 46.672V47.31L237.651 47.222C237.68 45.814 238.003 44.78 238.619 44.12C239.235 43.4453 240.188 43.108 241.479 43.108C242.74 43.108 243.635 43.4527 244.163 44.142C244.691 44.8313 244.955 45.8287 244.955 47.134V52.942C244.955 53.338 244.962 53.7193 244.977 54.086C245.006 54.4527 245.036 54.7973 245.065 55.12C245.109 55.428 245.146 55.7213 245.175 56H243.019C242.975 55.7653 242.916 55.472 242.843 55.12C242.784 54.7533 242.74 54.4233 242.711 54.13C242.564 54.6287 242.278 55.098 241.853 55.538C241.442 55.9633 240.87 56.176 240.137 56.176ZM241.061 54.152C241.296 54.152 241.516 54.086 241.721 53.954C241.926 53.822 242.11 53.6753 242.271 53.514C242.432 53.338 242.542 53.1987 242.601 53.096V49.488C242.234 49.6933 241.89 49.8987 241.567 50.104C241.244 50.3093 240.958 50.5293 240.709 50.764C240.474 50.984 240.284 51.2407 240.137 51.534C240.005 51.8127 239.939 52.1353 239.939 52.502C239.939 53.0153 240.034 53.4187 240.225 53.712C240.416 54.0053 240.694 54.152 241.061 54.152ZM246.235 56L249.095 49.312L246.301 43.284H248.545L250.415 47.31L252.065 43.284H254.375L251.471 49.598L254.419 56H252.175L250.173 51.688L248.457 56H246.235Z" fill="#212529"/>
</svg>
